<svg width="35" height="35" viewBox="0 0 35 35" fill="none" xmlns="http://www.w3.org/2000/svg">
<rect width="35" height="35" rx="4.25" fill="#77429A"/>
<path d="M17.4472 13.5469C14.9472 13.5469 12.8757 15.4808 12.8757 17.8897C12.8757 20.2987 14.9114 22.2326 17.4472 22.2326C19.9829 22.2326 22.0186 20.2647 22.0186 17.8897C22.0186 15.5147 19.9472 13.5469 17.4472 13.5469ZM17.4472 20.6719C15.84 20.6719 14.5186 19.4165 14.5186 17.8897C14.5186 16.3629 15.84 15.1076 17.4472 15.1076C19.0543 15.1076 20.3757 16.3629 20.3757 17.8897C20.3757 19.4165 19.0543 20.6719 17.4472 20.6719Z" fill="#E5D6FF"/>
<path d="M22.1966 14.4288C22.7686 14.4288 23.2323 13.9883 23.2323 13.4449C23.2323 12.9015 22.7686 12.4609 22.1966 12.4609C21.6246 12.4609 21.1609 12.9015 21.1609 13.4449C21.1609 13.9883 21.6246 14.4288 22.1966 14.4288Z" fill="#E5D6FF"/>
<path d="M24.8753 10.9008C23.9467 9.98477 22.6253 9.50977 21.1253 9.50977H13.7682C10.661 9.50977 8.5896 11.4776 8.5896 14.4294V21.3848C8.5896 22.8437 9.0896 24.0991 10.0896 25.0151C11.0539 25.8973 12.3396 26.3383 13.8039 26.3383H21.0896C22.6253 26.3383 23.911 25.8633 24.8396 25.0151C25.8039 24.133 26.3039 22.8776 26.3039 21.4187V14.4294C26.3039 13.0044 25.8039 11.783 24.8753 10.9008ZM24.7325 21.4187C24.7325 22.4705 24.3396 23.3187 23.6967 23.8955C23.0539 24.4723 22.161 24.7776 21.0896 24.7776H13.8039C12.7325 24.7776 11.8396 24.4723 11.1967 23.8955C10.5539 23.2848 10.2325 22.4366 10.2325 21.3848V14.4294C10.2325 13.4116 10.5539 12.5633 11.1967 11.9526C11.8039 11.3758 12.7325 11.0705 13.8039 11.0705H21.161C22.2325 11.0705 23.1253 11.3758 23.7682 11.9866C24.3753 12.5973 24.7325 13.4455 24.7325 14.4294V21.4187Z" fill="#E5D6FF"/>
</svg>
