<svg width="35" height="35" viewBox="0 0 35 35" fill="none" xmlns="http://www.w3.org/2000/svg">
<rect width="35" height="35" rx="4.25" fill="#77429A"/>
<path d="M12.668 25H9.03906V13.3164H12.668V25ZM10.8516 11.7227C9.69141 11.7227 8.75 10.7617 8.75 9.60156C8.75 9.04419 8.97141 8.50965 9.36553 8.11553C9.75965 7.72141 10.2942 7.5 10.8516 7.5C11.4089 7.5 11.9435 7.72141 12.3376 8.11553C12.7317 8.50965 12.9531 9.04419 12.9531 9.60156C12.9531 10.7617 12.0117 11.7227 10.8516 11.7227ZM26.2461 25H22.625V19.3125C22.625 17.957 22.5977 16.2188 20.7383 16.2188C18.8516 16.2188 18.5625 17.6914 18.5625 19.2148V25H14.9375V13.3164H18.418V14.9102H18.4688C18.9531 13.9922 20.1367 13.0234 21.9023 13.0234C25.5742 13.0234 26.25 15.4414 26.25 18.582V25H26.2461Z" fill="#E5D6FF"/>
</svg>
