<svg width="105" height="21" viewBox="0 0 105 21" fill="none" xmlns="http://www.w3.org/2000/svg">
<path d="M7.20002 1.1998L5.40801 4.9918L1.40801 5.5998C0.736015 5.6638 0.400015 6.6718 0.928015 7.1998L3.80802 10.1278L3.13601 14.3358C3.00801 15.0718 3.80802 15.5998 4.40002 15.2638L8.00001 13.3918L11.6 15.2638C12.272 15.5998 13.008 15.0718 12.864 14.3358L12.208 10.1278L15.072 7.1998C15.6 6.6718 15.264 5.7278 14.608 5.5998L10.608 4.9918L8.80002 1.1998C8.46402 0.527801 7.53602 0.527801 7.20002 1.1998Z" fill="#CCD6DF"/>
<path d="M7.20002 1.1998L5.40801 4.9918L1.40801 5.5998C0.736015 5.6638 0.400015 6.6718 0.928015 7.1998L3.80802 10.1278L3.13601 14.3358C3.00801 15.0718 3.80802 15.5998 4.40002 15.2638L8.00001 13.3918L11.6 15.2638C12.272 15.5998 13.008 15.0718 12.864 14.3358L12.208 10.1278L15.072 7.1998C15.6 6.6718 15.264 5.7278 14.608 5.5998L10.608 4.9918L8.80002 1.1998C8.46402 0.527801 7.53602 0.527801 7.20002 1.1998Z" fill="#FFC700"/>
<path d="M28.2 1.1998L26.408 4.9918L22.408 5.5998C21.736 5.6638 21.4 6.6718 21.928 7.1998L24.808 10.1278L24.136 14.3358C24.008 15.0718 24.808 15.5998 25.4 15.2638L29 13.3918L32.6 15.2638C33.272 15.5998 34.008 15.0718 33.864 14.3358L33.208 10.1278L36.072 7.1998C36.6 6.6718 36.264 5.7278 35.608 5.5998L31.608 4.9918L29.8 1.1998C29.464 0.527801 28.536 0.527801 28.2 1.1998Z" fill="#CCD6DF"/>
<path d="M28.2 1.1998L26.408 4.9918L22.408 5.5998C21.736 5.6638 21.4 6.6718 21.928 7.1998L24.808 10.1278L24.136 14.3358C24.008 15.0718 24.808 15.5998 25.4 15.2638L29 13.3918L32.6 15.2638C33.272 15.5998 34.008 15.0718 33.864 14.3358L33.208 10.1278L36.072 7.1998C36.6 6.6718 36.264 5.7278 35.608 5.5998L31.608 4.9918L29.8 1.1998C29.464 0.527801 28.536 0.527801 28.2 1.1998Z" fill="#FFC700"/>
<path d="M49.2 1.1998L47.408 4.9918L43.408 5.5998C42.736 5.6638 42.4 6.6718 42.928 7.1998L45.808 10.1278L45.136 14.3358C45.008 15.0718 45.808 15.5998 46.4 15.2638L50 13.3918L53.6 15.2638C54.272 15.5998 55.008 15.0718 54.864 14.3358L54.208 10.1278L57.072 7.1998C57.6 6.6718 57.264 5.7278 56.608 5.5998L52.608 4.9918L50.8 1.1998C50.464 0.527801 49.536 0.527801 49.2 1.1998Z" fill="#CCD6DF"/>
<path d="M49.2 1.1998L47.408 4.9918L43.408 5.5998C42.736 5.6638 42.4 6.6718 42.928 7.1998L45.808 10.1278L45.136 14.3358C45.008 15.0718 45.808 15.5998 46.4 15.2638L50 13.3918L53.6 15.2638C54.272 15.5998 55.008 15.0718 54.864 14.3358L54.208 10.1278L57.072 7.1998C57.6 6.6718 57.264 5.7278 56.608 5.5998L52.608 4.9918L50.8 1.1998C50.464 0.527801 49.536 0.527801 49.2 1.1998Z" fill="#FFC700"/>
<path d="M70.2 1.1998L68.408 4.9918L64.408 5.5998C63.736 5.6638 63.4 6.6718 63.928 7.1998L66.808 10.1278L66.136 14.3358C66.008 15.0718 66.808 15.5998 67.4 15.2638L71 13.3918L74.6 15.2638C75.272 15.5998 76.008 15.0718 75.864 14.3358L75.208 10.1278L78.072 7.1998C78.6 6.6718 78.264 5.7278 77.608 5.5998L73.608 4.9918L71.8 1.1998C71.464 0.527801 70.536 0.527801 70.2 1.1998Z" fill="#CCD6DF"/>
<path d="M70.2 1.1998L68.408 4.9918L64.408 5.5998C63.736 5.6638 63.4 6.6718 63.928 7.1998L66.808 10.1278L66.136 14.3358C66.008 15.0718 66.808 15.5998 67.4 15.2638L71 13.3918L74.6 15.2638C75.272 15.5998 76.008 15.0718 75.864 14.3358L75.208 10.1278L78.072 7.1998C78.6 6.6718 78.264 5.7278 77.608 5.5998L73.608 4.9918L71.8 1.1998C71.464 0.527801 70.536 0.527801 70.2 1.1998Z" fill="#FFC700"/>
<path d="M91.2 1.1998L89.408 4.9918L85.408 5.5998C84.736 5.6638 84.4 6.6718 84.928 7.1998L87.808 10.1278L87.136 14.3358C87.008 15.0718 87.808 15.5998 88.4 15.2638L92 13.3918L95.6 15.2638C96.272 15.5998 97.008 15.0718 96.864 14.3358L96.208 10.1278L99.072 7.1998C99.6 6.6718 99.264 5.7278 98.608 5.5998L94.608 4.9918L92.8 1.1998C92.464 0.527801 91.536 0.527801 91.2 1.1998Z" fill="#CCD6DF"/>
<path d="M91.2 1.1998L89.408 4.9918L85.408 5.5998C84.736 5.6638 84.4 6.6718 84.928 7.1998L87.808 10.1278L87.136 14.3358C87.008 15.0718 87.808 15.5998 88.4 15.2638L92 13.3918L95.6 15.2638C96.272 15.5998 97.008 15.0718 96.864 14.3358L96.208 10.1278L99.072 7.1998C99.6 6.6718 99.264 5.7278 98.608 5.5998L94.608 4.9918L92.8 1.1998C92.464 0.527801 91.536 0.527801 91.2 1.1998Z" fill="#FFC700"/>
</svg>
