<svg width="90" height="15" viewBox="0 0 90 15" fill="none" xmlns="http://www.w3.org/2000/svg">
<path d="M14.545 5.2617C14.4751 5.04504 14.3467 4.85193 14.1739 4.70374C14.0011 4.55555 13.7907 4.45807 13.5659 4.42209L10.0388 3.84888L8.40379 0.671596C8.29964 0.469325 8.14179 0.29965 7.94755 0.18119C7.75331 0.0627294 7.5302 6.10352e-05 7.30269 6.10352e-05C7.07518 6.10352e-05 6.85207 0.0627294 6.65783 0.18119C6.46359 0.29965 6.30574 0.469325 6.20159 0.671596L4.56654 3.84888L1.03953 4.42209C0.814978 4.45863 0.604834 4.55633 0.432152 4.70445C0.25947 4.85257 0.130925 5.04539 0.0606198 5.26176C-0.00968535 5.47813 -0.0190334 5.70969 0.0336013 5.93102C0.086236 6.15235 0.19882 6.35491 0.358999 6.51647L2.87553 9.05333L2.33084 12.5849C2.29589 12.8098 2.32365 13.04 2.41107 13.2502C2.49849 13.4604 2.64218 13.6424 2.82633 13.7762C3.01049 13.91 3.22798 13.9904 3.45489 14.0086C3.68179 14.0268 3.90932 13.982 4.11244 13.8793L7.30269 12.2698L10.493 13.8793C10.6962 13.9818 10.9236 14.0264 11.1505 14.0081C11.3773 13.9898 11.5947 13.9094 11.7788 13.7756C11.9628 13.6419 12.1065 13.46 12.194 13.2499C12.2815 13.0398 12.3094 12.8097 12.2746 12.5849L11.7299 9.05333L14.2465 6.51647C14.4072 6.35523 14.5201 6.15266 14.5728 5.9312C14.6255 5.70975 14.6158 5.47803 14.545 5.2617Z" fill="#FFC700"/>
<path d="M33.3241 5.26176C33.2543 5.0451 33.1259 4.85199 32.9531 4.7038C32.7803 4.55561 32.5699 4.45813 32.3451 4.42215L28.818 3.84894L27.183 0.671657C27.0788 0.469386 26.921 0.299711 26.7267 0.181251C26.5325 0.0627904 26.3094 0.00012207 26.0819 0.00012207C25.8544 0.00012207 25.6312 0.0627904 25.437 0.181251C25.2428 0.299711 25.0849 0.469386 24.9808 0.671657L23.3457 3.84894L19.8187 4.42215C19.5942 4.4587 19.384 4.55639 19.2113 4.70451C19.0386 4.85263 18.9101 5.04545 18.8398 5.26182C18.7695 5.47819 18.7601 5.70975 18.8128 5.93108C18.8654 6.15241 18.978 6.35497 19.1382 6.51653L21.6547 9.05339L21.11 12.5849C21.0751 12.8098 21.1028 13.0401 21.1902 13.2502C21.2777 13.4604 21.4214 13.6424 21.6055 13.7762C21.7897 13.91 22.0072 13.9904 22.2341 14.0086C22.461 14.0268 22.6885 13.9821 22.8916 13.8793L26.0819 12.2699L29.2722 13.8793C29.4753 13.9819 29.7028 14.0264 29.9296 14.0082C30.1564 13.9899 30.3738 13.9094 30.5579 13.7757C30.742 13.6419 30.8857 13.46 30.9732 13.25C31.0607 13.0399 31.0885 12.8098 31.0538 12.5849L30.5091 9.05339L33.0256 6.51653C33.1863 6.35529 33.2993 6.15272 33.3519 5.93127C33.4046 5.70981 33.395 5.47809 33.3241 5.26176Z" fill="#FFC700"/>
<path d="M52.1036 5.26164C52.0337 5.04498 51.9053 4.85187 51.7325 4.70368C51.5597 4.55549 51.3493 4.45801 51.1245 4.42203L47.5974 3.84882L45.9624 0.671535C45.8582 0.469264 45.7004 0.299589 45.5061 0.181129C45.3119 0.0626684 45.0888 0 44.8613 0C44.6338 0 44.4107 0.0626684 44.2164 0.181129C44.0222 0.299589 43.8643 0.469264 43.7602 0.671535L42.1251 3.84882L38.5981 4.42203C38.3736 4.45857 38.1634 4.55627 37.9907 4.70439C37.8181 4.85251 37.6895 5.04533 37.6192 5.2617C37.5489 5.47807 37.5396 5.70963 37.5922 5.93096C37.6448 6.15229 37.7574 6.35485 37.9176 6.51641L40.4341 9.05327L39.8894 12.5848C39.8545 12.8097 39.8822 13.0399 39.9697 13.2501C40.0571 13.4603 40.2008 13.6423 40.3849 13.7761C40.5691 13.9099 40.7866 13.9903 41.0135 14.0085C41.2404 14.0267 41.4679 13.982 41.671 13.8792L44.8613 12.2698L48.0516 13.8792C48.2548 13.9817 48.4822 14.0263 48.709 14.008C48.9359 13.9897 49.1533 13.9093 49.3373 13.7756C49.5214 13.6418 49.6651 13.4599 49.7526 13.2498C49.8401 13.0398 49.868 12.8097 49.8332 12.5848L49.2885 9.05327L51.8051 6.51641C51.9658 6.35517 52.0787 6.1526 52.1314 5.93114C52.184 5.70968 52.1744 5.47797 52.1036 5.26164Z" fill="#FFC700"/>
<path d="M70.8828 5.2617C70.813 5.04504 70.6846 4.85193 70.5118 4.70374C70.339 4.55555 70.1286 4.45807 69.9038 4.42209L66.3767 3.84888L64.7417 0.671596C64.6375 0.469325 64.4797 0.29965 64.2854 0.18119C64.0912 0.0627294 63.8681 6.10352e-05 63.6406 6.10352e-05C63.4131 6.10352e-05 63.19 0.0627294 62.9957 0.18119C62.8015 0.29965 62.6436 0.469325 62.5395 0.671596L60.9044 3.84888L57.3774 4.42209C57.1529 4.45863 56.9427 4.55633 56.77 4.70445C56.5974 4.85257 56.4688 5.04539 56.3985 5.26176C56.3282 5.47813 56.3189 5.70969 56.3715 5.93102C56.4241 6.15235 56.5367 6.35491 56.6969 6.51647L59.2134 9.05333L58.6687 12.5849C58.6338 12.8098 58.6615 13.04 58.749 13.2502C58.8364 13.4604 58.9801 13.6424 59.1642 13.7762C59.3484 13.91 59.5659 13.9904 59.7928 14.0086C60.0197 14.0268 60.2472 13.982 60.4503 13.8793L63.6406 12.2698L66.8309 13.8793C67.0341 13.9818 67.2615 14.0264 67.4883 14.0081C67.7152 13.9898 67.9326 13.9094 68.1166 13.7756C68.3007 13.6419 68.4444 13.46 68.5319 13.2499C68.6194 13.0398 68.6473 12.8097 68.6125 12.5849L68.0678 9.05333L70.5844 6.51647C70.745 6.35523 70.858 6.15266 70.9107 5.9312C70.9633 5.70975 70.9537 5.47803 70.8828 5.2617Z" fill="#FFC700"/>
<path d="M89.6621 5.26164C89.5923 5.04498 89.4639 4.85187 89.2911 4.70368C89.1183 4.55549 88.9079 4.45801 88.6831 4.42203L85.156 3.84882L83.521 0.671535C83.4168 0.469264 83.259 0.299589 83.0647 0.181129C82.8705 0.0626684 82.6474 0 82.4199 0C82.1924 0 81.9693 0.0626684 81.775 0.181129C81.5808 0.299589 81.4229 0.469264 81.3188 0.671535L79.6837 3.84882L76.1567 4.42203C75.9322 4.45857 75.722 4.55627 75.5493 4.70439C75.3767 4.85251 75.2481 5.04533 75.1778 5.2617C75.1075 5.47807 75.0982 5.70963 75.1508 5.93096C75.2034 6.15229 75.316 6.35485 75.4762 6.51641L77.9927 9.05327L77.448 12.5848C77.4131 12.8097 77.4408 13.0399 77.5283 13.2501C77.6157 13.4603 77.7594 13.6423 77.9435 13.7761C78.1277 13.9099 78.3452 13.9903 78.5721 14.0085C78.799 14.0267 79.0265 13.982 79.2296 13.8792L82.4199 12.2698L85.6102 13.8792C85.8134 13.9817 86.0408 14.0263 86.2676 14.008C86.4945 13.9897 86.7118 13.9093 86.8959 13.7756C87.08 13.6418 87.2237 13.4599 87.3112 13.2498C87.3987 13.0398 87.4266 12.8097 87.3918 12.5848L86.8471 9.05327L89.3637 6.51641C89.5243 6.35517 89.6373 6.1526 89.69 5.93114C89.7426 5.70968 89.733 5.47797 89.6621 5.26164Z" fill="#D4D4D4"/>
</svg>
