<svg width="35" height="35" viewBox="0 0 35 35" fill="none" xmlns="http://www.w3.org/2000/svg">
<rect width="35" height="35" rx="4.25" fill="#77429A"/>
<path d="M26.587 12.9198C26.3683 12.0969 25.7259 11.4511 24.9099 11.2323C23.4308 10.833 17.5002 10.833 17.5002 10.833C17.5002 10.833 11.5697 10.833 10.0905 11.2323C9.27452 11.4511 8.63216 12.0969 8.41341 12.9198C8.01758 14.4094 8.01758 17.5136 8.01758 17.5136C8.01758 17.5136 8.01758 20.6177 8.41341 22.1073C8.63216 22.9302 9.27452 23.5483 10.0905 23.767C11.5697 24.1663 17.5002 24.1663 17.5002 24.1663C17.5002 24.1663 23.4308 24.1663 24.9099 23.767C25.7259 23.5483 26.3683 22.9268 26.587 22.1073C26.9829 20.6177 26.9829 17.5136 26.9829 17.5136C26.9829 17.5136 26.9829 14.4094 26.587 12.9198ZM15.5627 20.333V14.6941L20.5176 17.5136L15.5627 20.333Z" fill="#E5D6FF"/>
</svg>
